<svg width="973" height="973" viewBox="0 0 973 973" fill="none" xmlns="http://www.w3.org/2000/svg">
<path fill-rule="evenodd" clip-rule="evenodd" d="M847.431 359.459C847.605 480.026 847.059 637.021 846.628 718.877C845.109 760.167 798.042 827.677 698.22 836.849C583.139 847.423 379.521 872.725 292.097 884.055C247.815 892.489 154.393 885.49 134.96 790.02V353.173L847.431 359.459ZM134.96 181.245C137.111 137.563 168.589 51.7106 277.294 57.753C288.144 58.3561 300.373 59.0749 313.707 59.8878V124.813C306.555 135.213 302.368 147.812 302.368 161.389C302.368 197.083 331.305 226.02 366.999 226.02C402.694 226.02 431.63 197.083 431.63 161.389C431.63 147.812 427.443 135.213 420.291 124.813V66.7637C483.722 71.0106 553.749 75.8982 616.074 80.3272V143.491C609.869 152.706 606.247 163.806 606.247 175.751C606.247 207.688 632.137 233.578 664.074 233.578C696.011 233.578 721.902 207.688 721.902 175.751C721.902 163.329 717.985 151.822 711.319 142.398V87.1651C722.802 87.9986 733.426 88.7735 743.008 89.4757C776.915 96.9029 845.108 134.492 846.626 225.43C846.906 242.211 847.103 265.509 847.236 293.102L134.96 276.432V181.245Z" fill="url(#paint0_linear_15_4587)"/>
<path fill-rule="evenodd" clip-rule="evenodd" d="M847.431 359.459C847.605 480.026 847.059 637.021 846.628 718.877C845.109 760.167 798.042 827.677 698.22 836.849C583.139 847.423 379.521 872.725 292.097 884.055C247.815 892.489 154.393 885.49 134.96 790.02V353.173L847.431 359.459ZM134.96 181.245C137.111 137.563 168.589 51.7106 277.294 57.753C288.144 58.3561 300.373 59.0749 313.707 59.8878V124.813C306.555 135.213 302.368 147.812 302.368 161.389C302.368 197.083 331.305 226.02 366.999 226.02C402.694 226.02 431.63 197.083 431.63 161.389C431.63 147.812 427.443 135.213 420.291 124.813V66.7637C483.722 71.0106 553.749 75.8982 616.074 80.3272V143.491C609.869 152.706 606.247 163.806 606.247 175.751C606.247 207.688 632.137 233.578 664.074 233.578C696.011 233.578 721.902 207.688 721.902 175.751C721.902 163.329 717.985 151.822 711.319 142.398V87.1651C722.802 87.9986 733.426 88.7735 743.008 89.4757C776.915 96.9029 845.108 134.492 846.626 225.43C846.906 242.211 847.103 265.509 847.236 293.102L134.96 276.432V181.245Z" fill="url(#paint1_linear_15_4587)"/>
<rect x="641.773" y="26.457" width="44.5991" height="172.349" rx="22.2995" fill="#3961D5"/>
<path fill-rule="evenodd" clip-rule="evenodd" d="M100.371 96.3892C81.1624 122.346 73.5848 153.185 72.5684 174.352V797.555C76.5788 817.758 83.7451 834.091 92.9824 847.214C53.143 839.576 12.1313 816.668 0 762.196V206.696C1.84215 172.5 25.234 109.983 100.371 96.3892Z" fill="#3961D5"/>
<rect x="344.697" width="44.5991" height="181.42" rx="22.2995" fill="#3961D5"/>
<rect x="584.563" y="669.317" width="124.174" height="271.125" rx="62.0869" transform="rotate(135 584.563 669.317)" fill="url(#paint2_linear_15_4587)"/>
<rect x="648.047" y="406.925" width="132.461" height="358.488" rx="66.2306" transform="rotate(41.7672 648.047 406.925)" fill="#FFFEFB"/>
<defs>
<linearGradient id="paint0_linear_15_4587" x1="237.736" y1="57.4503" x2="768.767" y2="841.335" gradientUnits="userSpaceOnUse">
<stop stop-color="#D9D9D9"/>
<stop offset="1" stop-color="#737373"/>
</linearGradient>
<linearGradient id="paint1_linear_15_4587" x1="251.419" y1="783.327" x2="883.844" y2="407.619" gradientUnits="userSpaceOnUse">
<stop stop-color="#3DBAED"/>
<stop offset="1" stop-color="#3961D5"/>
</linearGradient>
<linearGradient id="paint2_linear_15_4587" x1="646.65" y1="940.442" x2="646.65" y2="669.317" gradientUnits="userSpaceOnUse">
<stop stop-color="#E5F7FF"/>
<stop offset="1" stop-color="#85D1F4"/>
</linearGradient>
</defs>
</svg>
