<svg width="3005" height="973" viewBox="0 0 3005 973" fill="none" xmlns="http://www.w3.org/2000/svg">
<path d="M974 123.429H1034.1L1110.94 344.378L1187.78 123.429H1247.39L1143.94 394.571H1076.95L974 123.429Z" fill="white"/>
<path d="M1251.41 257.77C1251.41 174.114 1308.06 119 1379.48 119C1425.29 119 1456.82 140.652 1473.57 162.796V123.429H1530.21V394.571H1473.57V354.22C1456.33 377.348 1423.82 399 1378.5 399C1308.06 399 1251.41 341.425 1251.41 257.77ZM1473.57 258.754C1473.57 200.687 1433.67 167.717 1391.31 167.717C1349.44 167.717 1309.04 199.211 1309.04 257.77C1309.04 316.329 1349.44 350.283 1391.31 350.283C1433.67 350.283 1473.57 317.313 1473.57 258.754Z" fill="white"/>
<path d="M1968.98 394.571V243.007C1968.98 193.306 1941.89 167.717 1901 167.717C1859.62 167.717 1832.53 193.306 1832.53 243.007V394.571H1776.87V243.007C1776.87 193.306 1749.78 167.717 1708.89 167.717C1667.52 167.717 1640.42 193.306 1640.42 243.007V394.571H1584.27V123.429H1640.42V154.431C1658.65 132.286 1688.2 119 1720.71 119C1763.57 119 1799.53 137.207 1818.25 172.638C1834.99 139.668 1873.42 119 1912.82 119C1976.37 119 2024.64 158.859 2024.64 234.641V394.571H1968.98Z" fill="white"/>
<path d="M2335 258.754C2335 343.886 2271.95 399 2194.12 399C2116.78 399 2058.17 343.886 2058.17 258.754C2058.17 173.622 2119.25 119 2196.58 119C2273.92 119 2335 173.622 2335 258.754ZM2115.31 258.754C2115.31 320.265 2151.76 350.283 2194.12 350.283C2235.99 350.283 2277.37 320.265 2277.37 258.754C2277.37 197.243 2237.47 167.717 2195.6 167.717C2153.24 167.717 2115.31 197.243 2115.31 258.754Z" fill="white"/>
<path d="M746.846 394.967L265.327 384.006C246.429 456.574 208.029 603.6 205.61 611.159C203.191 618.718 224.508 771.035 235.468 846.249L658.404 824.327L746.846 795.98V394.967Z" fill="#174E8E"/>
<path fill-rule="evenodd" clip-rule="evenodd" d="M847.431 359.459C847.605 480.026 847.059 637.021 846.628 718.877C845.109 760.167 798.042 827.677 698.22 836.849C583.139 847.423 379.521 872.725 292.097 884.055C247.815 892.489 154.393 885.49 134.96 790.02V353.173L847.431 359.459ZM134.96 181.245C137.111 137.563 168.589 51.7106 277.294 57.753C288.144 58.3561 300.373 59.0749 313.707 59.8878V124.813C306.555 135.213 302.368 147.812 302.368 161.389C302.368 197.083 331.305 226.02 366.999 226.02C402.694 226.02 431.63 197.083 431.63 161.389C431.63 147.812 427.443 135.213 420.291 124.813V66.7637C483.722 71.0106 553.749 75.8982 616.074 80.3272V143.491C609.869 152.706 606.247 163.806 606.247 175.751C606.247 207.688 632.137 233.578 664.074 233.578C696.011 233.578 721.902 207.688 721.902 175.751C721.902 163.329 717.985 151.822 711.319 142.398V87.1651C722.802 87.9986 733.426 88.7735 743.008 89.4757C776.915 96.9029 845.108 134.492 846.626 225.43C846.906 242.211 847.103 265.509 847.236 293.102L134.96 276.432V181.245Z" fill="url(#paint0_linear_15_4587)"/>
<path fill-rule="evenodd" clip-rule="evenodd" d="M847.431 359.459C847.605 480.026 847.059 637.021 846.628 718.877C845.109 760.167 798.042 827.677 698.22 836.849C583.139 847.423 379.521 872.725 292.097 884.055C247.815 892.489 154.393 885.49 134.96 790.02V353.173L847.431 359.459ZM134.96 181.245C137.111 137.563 168.589 51.7106 277.294 57.753C288.144 58.3561 300.373 59.0749 313.707 59.8878V124.813C306.555 135.213 302.368 147.812 302.368 161.389C302.368 197.083 331.305 226.02 366.999 226.02C402.694 226.02 431.63 197.083 431.63 161.389C431.63 147.812 427.443 135.213 420.291 124.813V66.7637C483.722 71.0106 553.749 75.8982 616.074 80.3272V143.491C609.869 152.706 606.247 163.806 606.247 175.751C606.247 207.688 632.137 233.578 664.074 233.578C696.011 233.578 721.902 207.688 721.902 175.751C721.902 163.329 717.985 151.822 711.319 142.398V87.1651C722.802 87.9986 733.426 88.7735 743.008 89.4757C776.915 96.9029 845.108 134.492 846.626 225.43C846.906 242.211 847.103 265.509 847.236 293.102L134.96 276.432V181.245Z" fill="url(#paint1_linear_15_4587)"/>
<rect x="641.773" y="26.457" width="44.5991" height="172.349" rx="22.2995" fill="#3961D5"/>
<path fill-rule="evenodd" clip-rule="evenodd" d="M100.371 96.3892C81.1624 122.346 73.5848 153.185 72.5684 174.352V797.555C76.5788 817.758 83.7451 834.091 92.9824 847.214C53.143 839.576 12.1313 816.668 0 762.196V206.696C1.84215 172.5 25.234 109.983 100.371 96.3892Z" fill="#3961D5"/>
<rect x="344.697" width="44.5991" height="181.42" rx="22.2995" fill="#3961D5"/>
<rect x="584.563" y="669.317" width="124.174" height="271.125" rx="62.0869" transform="rotate(135 584.563 669.317)" fill="url(#paint2_linear_15_4587)"/>
<rect x="648.047" y="406.925" width="132.461" height="358.488" rx="66.2306" transform="rotate(41.7672 648.047 406.925)" fill="#FFFEFB"/>
<path d="M991 625.77C991 542.114 1047.69 487 1119.16 487C1165.01 487 1196.55 508.652 1213.31 530.796V491.429H1270V762.571H1213.31V722.22C1196.06 745.348 1163.53 767 1118.18 767C1047.69 767 991 709.425 991 625.77ZM1213.31 626.754C1213.31 568.687 1173.39 535.717 1130.99 535.717C1089.09 535.717 1048.67 567.211 1048.67 625.77C1048.67 684.329 1089.09 718.283 1130.99 718.283C1173.39 718.283 1213.31 685.313 1213.31 626.754Z" fill="white"/>
<path d="M1769 533.973C1731.07 533.973 1700.53 559.591 1694.62 602.453H1844.87C1843.88 560.577 1810.88 533.973 1769 533.973ZM1896.1 681.77C1880.83 729.065 1837.97 767 1771.47 767C1693.64 767 1636 711.822 1636 626.593C1636 541.363 1691.17 486.678 1771.47 486.678C1848.81 486.678 1903.49 540.378 1903.49 620.188C1903.49 629.549 1903 638.417 1901.52 647.777H1694.13C1698.07 692.609 1730.09 719.705 1771.47 719.705C1805.95 719.705 1825.16 702.955 1835.51 681.77H1896.1Z" fill="white"/>
<path d="M2131.66 762.566V610.828C2131.66 561.069 2104.57 535.451 2063.68 535.451C2022.3 535.451 1995.21 561.069 1995.21 610.828V762.566H1939.05V491.112H1995.21V522.15C2013.43 499.98 2043.48 486.678 2075.99 486.678C2139.54 486.678 2187.32 526.583 2187.32 602.453V762.566H2131.66Z" fill="white"/>
<path d="M2220.53 625.607C2220.53 541.856 2277.18 486.678 2349.1 486.678C2384.57 486.678 2422.01 503.429 2442.7 529.047V398H2499.35V762.566H2442.7V721.676C2425.46 746.308 2392.95 767 2348.61 767C2277.18 767 2220.53 709.359 2220.53 625.607ZM2442.7 626.593C2442.7 568.459 2402.8 535.451 2360.43 535.451C2318.56 535.451 2278.17 566.981 2278.17 625.607C2278.17 684.234 2318.56 718.227 2360.43 718.227C2402.8 718.227 2442.7 685.219 2442.7 626.593Z" fill="white"/>
<path d="M2534.69 625.607C2534.69 541.856 2591.34 486.678 2662.77 486.678C2708.58 486.678 2740.11 508.355 2756.85 530.525V491.112H2813.51V762.566H2756.85V722.168C2739.61 745.323 2707.1 767 2661.78 767C2591.34 767 2534.69 709.359 2534.69 625.607ZM2756.85 626.593C2756.85 568.459 2716.95 535.451 2674.59 535.451C2632.72 535.451 2592.32 566.981 2592.32 625.607C2592.32 684.234 2632.72 718.227 2674.59 718.227C2716.95 718.227 2756.85 685.219 2756.85 626.593Z" fill="white"/>
<path d="M2923.72 619.696V762.566H2867.56V491.112H2923.72V530.525C2939.48 503.429 2966.58 486.678 3005 486.678V544.812H2990.71C2949.34 544.812 2923.72 562.055 2923.72 619.696Z" fill="white"/>
<path d="M1613.91 443.622C1602.68 444.775 1599.69 445.415 1588.95 449.067C1577.29 453.039 1569.36 457.012 1559.32 463.803C1548.03 471.427 1540.29 479.563 1531.74 492.889C1528.12 498.527 1524.69 504.101 1524.13 505.19C1523.57 506.343 1522.76 507.304 1522.32 507.304C1521.95 507.304 1518.02 505.895 1513.65 504.101C1454.36 480.547 1380.49 491.815 1336.4 541.004C1286.16 596.453 1291.99 688.024 1341.77 742.175L1346.88 747.749L1355.93 742.88C1365.79 737.626 1381.38 731.027 1396.29 725.774C1401.54 723.916 1405.84 722.186 1405.84 721.866C1405.84 721.609 1403.78 719.559 1401.29 717.381C1385 702.902 1373.77 687.718 1368.34 672.854C1358.8 646.907 1359.61 620.255 1370.53 597.831C1396.15 545.206 1468.03 532.2 1511.28 569.129C1541.97 595.697 1555.63 643.397 1537.11 681.439C1531.31 693.612 1515.77 710.269 1501.92 719.175C1485.57 729.81 1470.91 735.192 1423.62 748.133C1413.08 751.016 1388.62 758.704 1381.2 761.395C1358.74 769.66 1340.83 780.872 1327.73 794.71C1315.25 807.972 1308.82 820.337 1305.14 838.468C1301.84 854.421 1301.71 864.672 1304.52 880.624C1306.2 890.298 1308.01 895.808 1312.38 904.842C1317.87 916.118 1323.55 923.421 1335.03 934.12C1356.55 954.173 1385 966.474 1420.19 970.959C1426.99 971.792 1433.6 972.112 1447.02 972.048C1473.16 972.048 1487.57 969.934 1507.85 963.079C1535.42 953.725 1551.27 944.115 1569.68 925.343C1581.22 913.683 1588.46 903.432 1595.19 889.466C1602.74 873.705 1606.92 859.995 1609.61 842.056C1611.17 831.228 1611.04 808.741 1609.29 797.849C1607.48 786.574 1598.69 752.682 1597.56 752.682C1597.38 752.682 1591.64 757.295 1584.77 762.997C1570.61 774.785 1561.13 781.512 1553.08 785.677C1549.96 787.278 1547.47 788.816 1547.47 789.072C1562.5 850.81 1527.16 909.302 1465.11 915.477C1452.13 916.758 1432.79 915.605 1418.94 912.786C1391.61 907.212 1371.53 892.413 1365.35 873.385C1358.66 852.788 1369.15 832.31 1386 820.85C1398.85 812.072 1416.7 805.537 1454.5 795.991C1483.2 788.688 1499.11 783.178 1518.45 773.76C1534.05 766.136 1557.07 749.799 1568.05 738.587C1591.26 714.69 1605.92 679.709 1607.17 645.049C1607.61 633.068 1606.74 623.266 1604.18 610.645C1600.37 591.681 1595.82 579.444 1587.08 564.452C1579.03 550.742 1575.54 544.271 1574.92 541.773C1574.11 538.697 1574.92 534.917 1578.04 528.062C1584.59 513.455 1595.19 504.165 1610.17 499.873C1611.91 499.36 1616.72 498.783 1620.96 498.527L1628.57 498.143V470.338V442.596L1625.33 442.661C1623.52 442.725 1618.4 443.173 1613.91 443.622Z" fill="white"/>
<defs>
<linearGradient id="paint0_linear_15_4587" x1="237.736" y1="57.4503" x2="768.767" y2="841.335" gradientUnits="userSpaceOnUse">
<stop stop-color="#D9D9D9"/>
<stop offset="1" stop-color="#737373"/>
</linearGradient>
<linearGradient id="paint1_linear_15_4587" x1="251.419" y1="783.327" x2="883.844" y2="407.619" gradientUnits="userSpaceOnUse">
<stop stop-color="#3DBAED"/>
<stop offset="1" stop-color="#3961D5"/>
</linearGradient>
<linearGradient id="paint2_linear_15_4587" x1="646.65" y1="940.442" x2="646.65" y2="669.317" gradientUnits="userSpaceOnUse">
<stop stop-color="#E5F7FF"/>
<stop offset="1" stop-color="#85D1F4"/>
</linearGradient>
</defs>
</svg>
